# xmcd
#
# Track frame offsets:
#	150
#	13470
#	26857
#	47207
#	66542
#	82647
#	106837
#	135315
#	154070
#	172792
#	191087
#
# Disc length: 2738
#
# Revision: 2
# Processed by: cddbd v1.5.1PL0 Copyright (c) Steve Scherf et al.
# Submitted via: CDmax 2.0
# Normalized: r1:DSWAP,DSETVAR1,TDELIM( - )
#
DISCID=8b0ab00b
DTITLE=Various Artist - Blues for the midnight hour
DYEAR=2001
DGENRE=Blues
TTITLE0=B.B. King - Blues at midnight
TTITLE1=Etta James - At last
TTITLE2=Duke Robillard - Fishnet
TTITLE3=Custis Delgado - I sleep with the TV on
TTITLE4=Debbie Davies - I just want to make love to you
TTITLE5=Lani Groves - It's a man's, man's world
TTITLE6=Pinetop Perkins - How long
TTITLE7=Sue Foley - To be next to you
TTITLE8=Anders Osborne - Coast to coast blues
TTITLE9=Grady Champion - Good as new
TTITLE10=John Hammond - Malted Milk
EXTD=
EXTT0=
EXTT1=
EXTT2=
EXTT3=
EXTT4=
EXTT5=
EXTT6=
EXTT7=
EXTT8=
EXTT9=
EXTT10=
PLAYORDER=
